# xmcd
#
# Track frame offsets: 
#        150
#        15113
#        38228
#        55405
#        73390
#        88210
#        104068
#        121287
#        139338
#        157085
#        173588
#        190373
#        208683
#        226735
#        244710
#        260605
#        274793
#        293618
#        311440
#        322268
#
# Disc length: 4569 seconds
#
# Revision: 3
# Processed by: cddbd v1.5.2PL0 Copyright (c) Steve Scherf et al.
# Submitted via: ExactAudioCopy v0.99pb5
#
DISCID=2d11d714
DTITLE=Various Artist - 2002 official World Cup album
DYEAR=2002
DGENRE=Rock
TTITLE0=Anastacia-Boom(official song of 2002 World cup)
TTITLE1=Love United-Live for Love United
TTITLE2=Boomkunk MC's featuring Jessica Folcker
TTITLE3=Jennifer Lopez-Let's get loud
TTITLE4=Safri Duo meets Ayla-Sunrise
TTITLE5=Lara Fabian-World at your feet
TTITLE6=A1-Let it out
TTITLE7=Nelly Furtado-Party
TTITLE8=G.O.D.-True east side
TTITLE9=Die Toten Hosen-We will be heroes
TTITLE10=Vangelis-Anthem remixed by JS16(the official anthem of the 20
TTITLE10=02 World Cup)
TTITLE11=Elisa-Fever
TTITLE12=OV7-Bringin the world back home
TTITLE13=Mondo Grosso-BLZ
TTITLE14=Monica Naranjo-Shake the house
TTITLE15=Opera Babes-Vittoria(Aida)
TTITLE16=Bongo Maffin-Brave ,strong and true
TTITLE17=Chayanne-World of make believe
TTITLE18=Communion featuring Carlinhos Brown-Gol
TTITLE19=Vangelis feat.Kodo-Anthem-the official anthem of the 2002 Wor
TTITLE19=ld Cup)
EXTD=\n YEAR: 2002
EXTT0=
EXTT1=
EXTT2=
EXTT3=
EXTT4=
EXTT5=
EXTT6=
EXTT7=
EXTT8=
EXTT9=
EXTT10=
EXTT11=
EXTT12=
EXTT13=
EXTT14=
EXTT15=
EXTT16=
EXTT17=
EXTT18=
EXTT19=
PLAYORDER=
